<svg width="1440" height="499" viewBox="0 0 1440 499" fill="none" xmlns="http://www.w3.org/2000/svg">
<mask id="mask0_56_30" style="mask-type:alpha" maskUnits="userSpaceOnUse" x="0" y="0" width="1440" height="499">
<rect width="1440" height="499" fill="#D9D9D9"/>
</mask>
<g mask="url(#mask0_56_30)">
<path opacity="0.4" d="M0 -177V498.787C96 415.052 192 363.252 288 343.387C384 323.522 480 320.126 576 333.199C672 346.272 768 335.708 864 301.509C960 267.31 1056 215.33 1152 145.57C1248 75.81 1344 54.093 1440 80.419V-177H0Z" fill="url(#paint0_linear_56_30)"/>
<path opacity="0.4" d="M0 -177V471.675C96 466.14 192 452.119 288 429.612C384 407.105 480 376.863 576 338.887C672 300.911 768 282.92 864 284.914C960 286.908 1056 250.264 1152 174.981C1248 99.6983 1344 98.9526 1440 172.744V-177H0Z" fill="url(#paint1_linear_56_30)"/>
<path opacity="0.4" d="M0 -177V427.447C96 430.778 192 422.169 288 401.622C384 381.075 480 342.061 576 284.582C672 227.103 768 226.847 864 283.815C960 340.783 1056 311.987 1152 197.428C1248 82.8687 1344 78.6807 1440 184.864V-177H0Z" fill="url(#paint2_linear_56_30)"/>
<path opacity="0.4" d="M0 -177V415.095C96 415.374 192 411.226 288 402.653C384 394.08 480 366.111 576 318.746C672 271.381 768 238.559 864 220.279C960 201.999 1056 196.835 1152 204.788C1248 212.741 1344 172.312 1440 83.501V-177H0Z" fill="url(#paint3_linear_56_30)"/>
<path opacity="0.4" d="M0 -177V461.186C96 428.444 192 403.155 288 385.319C384 367.483 480 351.489 576 337.337C672 323.185 768 299.305 864 265.698C960 232.091 1056 207.955 1152 193.291C1248 178.627 1344 167.585 1440 160.164V-177H0Z" fill="url(#paint4_linear_56_30)"/>
<path d="M138.784 234L158.368 189.2H173.216L192.8 234H177.184L162.72 196.368H168.608L154.144 234H138.784ZM150.432 226.192L154.272 215.312H174.88L178.72 226.192H150.432ZM199.051 234V189.2H222.987C229.173 189.2 233.739 190.309 236.683 192.528C239.627 194.704 241.099 197.499 241.099 200.912C241.099 203.173 240.459 205.2 239.179 206.992C237.941 208.741 236.128 210.128 233.739 211.152C231.349 212.176 228.405 212.688 224.907 212.688L226.187 209.232C229.685 209.232 232.693 209.723 235.211 210.704C237.771 211.685 239.733 213.115 241.099 214.992C242.507 216.827 243.211 219.045 243.211 221.648C243.211 225.531 241.589 228.56 238.347 230.736C235.147 232.912 230.453 234 224.267 234H199.051ZM213.899 223.44H222.987C224.651 223.44 225.888 223.141 226.699 222.544C227.552 221.947 227.979 221.072 227.979 219.92C227.979 218.768 227.552 217.893 226.699 217.296C225.888 216.699 224.651 216.4 222.987 216.4H212.875V206.416H220.939C222.645 206.416 223.883 206.139 224.651 205.584C225.461 204.987 225.867 204.155 225.867 203.088C225.867 201.979 225.461 201.147 224.651 200.592C223.883 200.037 222.645 199.76 220.939 199.76H213.899V223.44ZM275.943 235.024C272.273 235.024 268.881 234.448 265.767 233.296C262.695 232.144 260.028 230.523 257.767 228.432C255.505 226.299 253.735 223.803 252.455 220.944C251.217 218.085 250.599 214.971 250.599 211.6C250.599 208.187 251.217 205.072 252.455 202.256C253.735 199.397 255.505 196.923 257.767 194.832C260.028 192.699 262.695 191.056 265.767 189.904C268.881 188.752 272.252 188.176 275.879 188.176C279.548 188.176 282.919 188.752 285.991 189.904C289.063 191.056 291.729 192.699 293.991 194.832C296.252 196.923 298.001 199.397 299.239 202.256C300.519 205.072 301.159 208.187 301.159 211.6C301.159 214.971 300.519 218.085 299.239 220.944C298.001 223.803 296.252 226.299 293.991 228.432C291.729 230.523 289.063 232.144 285.991 233.296C282.919 234.448 279.569 235.024 275.943 235.024ZM275.879 222.8C277.287 222.8 278.588 222.544 279.783 222.032C281.02 221.52 282.087 220.795 282.983 219.856C283.921 218.875 284.647 217.701 285.159 216.336C285.671 214.928 285.927 213.349 285.927 211.6C285.927 209.851 285.671 208.293 285.159 206.928C284.647 205.52 283.921 204.347 282.983 203.408C282.087 202.427 281.02 201.68 279.783 201.168C278.588 200.656 277.287 200.4 275.879 200.4C274.471 200.4 273.148 200.656 271.911 201.168C270.716 201.68 269.649 202.427 268.711 203.408C267.815 204.347 267.111 205.52 266.599 206.928C266.087 208.293 265.831 209.851 265.831 211.6C265.831 213.349 266.087 214.928 266.599 216.336C267.111 217.701 267.815 218.875 268.711 219.856C269.649 220.795 270.716 221.52 271.911 222.032C273.148 222.544 274.471 222.8 275.879 222.8ZM331.921 235.024C325.051 235.024 319.697 233.168 315.857 229.456C312.017 225.744 310.097 220.539 310.097 213.84V189.2H325.201V213.392C325.201 216.805 325.819 219.237 327.057 220.688C328.294 222.096 329.958 222.8 332.049 222.8C334.182 222.8 335.846 222.096 337.041 220.688C338.278 219.237 338.897 216.805 338.897 213.392V189.2H353.745V213.84C353.745 220.539 351.825 225.744 347.985 229.456C344.145 233.168 338.79 235.024 331.921 235.024ZM373.611 234V200.912H360.491V189.2H401.835V200.912H388.715V234H373.611Z" fill="white"/>
</g>
<defs>
<linearGradient id="paint0_linear_56_30" x1="0" y1="-177" x2="1440" y2="-177" gradientUnits="userSpaceOnUse">
<stop stop-color="#1B7771"/>
<stop offset="0.26875" stop-color="#698C82"/>
<stop offset="0.544792" stop-color="#1B7771"/>
<stop offset="1" stop-color="#698C82"/>
</linearGradient>
<linearGradient id="paint1_linear_56_30" x1="0" y1="-177" x2="1440" y2="-177" gradientUnits="userSpaceOnUse">
<stop stop-color="#1B7771"/>
<stop offset="0.26875" stop-color="#698C82"/>
<stop offset="0.544792" stop-color="#1B7771"/>
<stop offset="1" stop-color="#698C82"/>
</linearGradient>
<linearGradient id="paint2_linear_56_30" x1="2.47425e-06" y1="3" x2="1440" y2="428" gradientUnits="userSpaceOnUse">
<stop stop-color="#1B7771"/>
<stop offset="0.26875" stop-color="#698C82"/>
<stop offset="0.544792" stop-color="#1B7771"/>
<stop offset="1" stop-color="#698C82"/>
</linearGradient>
<linearGradient id="paint3_linear_56_30" x1="-2.20597e-06" y1="-0.999994" x2="1440" y2="415" gradientUnits="userSpaceOnUse">
<stop stop-color="#1B7771"/>
<stop offset="0.26875" stop-color="#698C82"/>
<stop offset="0.544792" stop-color="#1B7771"/>
<stop offset="1" stop-color="#698C82"/>
</linearGradient>
<linearGradient id="paint4_linear_56_30" x1="-9.61486e-07" y1="5.50001" x2="1440" y2="461" gradientUnits="userSpaceOnUse">
<stop stop-color="#1B7771"/>
<stop offset="0.26875" stop-color="#698C82"/>
<stop offset="0.544792" stop-color="#1B7771"/>
<stop offset="1" stop-color="#698C82"/>
</linearGradient>
</defs>
</svg>
